<svg preserveAspectRatio="none" overflow="visible" style="display: block;" width="55" height="60" viewBox="0 0 55 60" fill="none" xmlns="http://www.w3.org/2000/svg">
<path id="Vector" d="M12.4429 4.67633H42.5523C42.7489 4.67633 42.9369 4.7535 43.0756 4.89069C43.2144 5.02789 43.2925 5.21368 43.2925 5.40803V27.6936C43.2925 27.8851 43.2144 28.0737 43.0756 28.2109C42.9369 28.3481 42.7489 28.4253 42.5523 28.4253H12.4429C12.0353 28.4253 11.7028 28.0966 11.7028 27.6936V5.40803C11.7028 5.00216 12.0353 4.67633 12.4429 4.67633ZM41.8122 6.13974H13.1831V23.506L23.013 15.5948C23.2501 15.4033 23.5826 15.3776 23.8457 15.5291L30.6516 19.4134L34.8035 17.0439C35.0319 16.9125 35.3152 16.9153 35.5407 17.0468V17.0439L41.8118 20.6224L41.8122 6.13974ZM41.8122 26.9619V22.3087L35.171 18.5186L31.0626 20.8652L31.0597 20.8624C30.8284 21.0167 30.5248 21.0253 30.2819 20.8881L23.5454 17.0438L13.1803 25.3867V26.9587L41.8122 26.9619ZM7.71335 0H47.2827H47.2798C47.4764 0 47.6672 0.0771727 47.806 0.214367C47.9447 0.351562 48.0228 0.53735 48.0228 0.731705V32.3662C48.0228 32.5606 47.9447 32.7464 47.806 32.8836C47.6672 33.0208 47.4793 33.0979 47.2827 33.0979H7.71336C7.30569 33.0979 6.9732 32.7721 6.9732 32.3662V0.731705C6.9732 0.328697 7.30569 0 7.71335 0ZM46.5425 1.46341H8.45351V31.6345H46.5425V1.46341ZM33.729 9.0007C34.5269 9.0007 35.2555 9.32369 35.7817 9.84385C36.3282 10.3812 36.6346 11.1129 36.6346 11.8732C36.6346 12.6363 36.3281 13.3652 35.7817 13.9053L35.7759 13.9082H35.7788C35.2324 14.4455 34.4951 14.7485 33.7261 14.7485C32.9541 14.7485 32.2168 14.4455 31.6733 13.9082L31.6705 13.9025C31.124 13.3651 30.8147 12.6334 30.8147 11.8703C30.8147 11.11 31.1241 10.3783 31.6705 9.84099L31.7167 9.80097V9.79812C32.2574 9.28649 32.9773 8.99778 33.7261 8.99778L33.729 9.0007ZM34.738 10.8728H34.7351C34.4663 10.6099 34.1049 10.4613 33.7261 10.4641C33.3444 10.4641 33.0004 10.6099 32.746 10.8443L32.7171 10.8757C32.4482 11.1415 32.2978 11.4988 32.2978 11.8732C32.2978 12.2648 32.4568 12.6192 32.7113 12.8708L32.7171 12.8765C32.9831 13.1394 33.3473 13.2881 33.7261 13.2852C34.1049 13.2852 34.4663 13.1394 34.7352 12.8765L34.738 12.8736C35.004 12.6078 35.1544 12.2477 35.1515 11.8732C35.1515 11.4988 35.0012 11.1415 34.7352 10.8757H34.738L34.738 10.8728ZM4.52204 37.343C5.76816 37.343 6.89859 37.8432 7.71683 38.6521L7.71972 38.655H7.72262C9.32149 40.2298 9.49491 42.7336 8.13028 44.5114C20.5338 49.5848 34.4664 49.5848 46.8699 44.5114C45.5052 42.7336 45.6815 40.2298 47.2804 38.655V38.6521L47.2862 38.6464L47.2833 38.6492C48.1304 37.8118 49.2782 37.343 50.4781 37.343C51.7271 37.343 52.8576 37.8432 53.6758 38.6521C54.494 39.461 55 40.5785 55 41.8133C55 43.048 54.494 44.1656 53.6758 44.9745L53.6324 45.0145L53.5428 45.0974V59.2683C53.5428 59.4627 53.4647 59.6484 53.326 59.7856C53.1872 59.9228 52.9992 60 52.8026 60H48.1506C47.743 60 47.4105 59.6713 47.4105 59.2683V45.8693C34.6599 51.077 20.3401 51.077 7.58953 45.8693V59.2683C7.58953 59.4627 7.51147 59.6484 7.37269 59.7856C7.23391 59.9228 7.04309 60 6.84938 60H2.19737C1.78971 60 1.45722 59.6713 1.45722 59.2683V45.0974L1.32422 44.9716V44.9745C0.474229 44.137 -0.00287357 42.9994 1.30226e-05 41.8133C1.30226e-05 40.5785 0.505974 39.4581 1.32422 38.6521L1.36759 38.6121C2.21181 37.7975 3.34246 37.343 4.52204 37.343ZM6.67307 39.6839H6.67596C6.1035 39.1208 5.32866 38.8036 4.52197 38.8064C3.73267 38.8036 2.97224 39.1065 2.40269 39.6524L2.37089 39.6867C1.80132 40.2498 1.47752 41.0158 1.48041 41.8132C1.48041 42.6449 1.82158 43.3967 2.37377 43.9397L2.37088 43.9425C2.47208 44.0426 2.57905 44.1369 2.6918 44.2226C3.2209 44.6142 3.86273 44.8229 4.52198 44.8229C5.31417 44.8229 6.0746 44.5199 6.64126 43.9769L6.67306 43.9426L6.67595 43.9397C7.24552 43.3766 7.56643 42.6106 7.56643 41.8132C7.56643 40.9815 7.22527 40.2297 6.67884 39.6867L6.67307 39.6839ZM6.10639 46.0005H6.10928C5.0858 46.3807 3.96114 46.3807 2.93758 46.0005V58.5368H6.10632L6.10639 46.0005ZM52.6294 39.6867C52.0598 39.1208 51.2849 38.8036 50.4783 38.8064C49.6717 38.8036 48.8968 39.1208 48.3243 39.6839L48.3214 39.6867C47.775 40.2269 47.4339 40.9815 47.4339 41.8132C47.4339 42.6449 47.775 43.3967 48.3243 43.9397L48.3214 43.9426V43.9454L48.3243 43.9426C48.4255 44.0426 48.5325 44.1369 48.6481 44.2227C49.1744 44.6142 49.8191 44.8229 50.4783 44.8229C51.2676 44.8229 52.0281 44.5199 52.5947 43.9769L52.6265 43.9426L52.6294 43.9397C53.199 43.3767 53.5199 42.6107 53.5199 41.8132C53.5199 41.0158 53.1989 40.2498 52.6294 39.6867ZM52.0598 46.0034H52.0627C51.0392 46.3835 49.9145 46.3835 48.891 46.0034V58.5368H52.0597L52.0598 46.0034Z" fill="#FDFF84"/>
</svg>
