<svg preserveAspectRatio="none" overflow="visible" style="display: block;" width="85" height="100" viewBox="0 0 85 100" fill="none" xmlns="http://www.w3.org/2000/svg">
<path id="Vector" d="M83.5252 0H1.47477C0.65811 0 0 0.663455 0 1.47593V98.5241C0 99.3414 0.662931 100 1.47477 100H83.5252C84.3419 100 85 99.3365 85 98.5241V1.47593C85 0.65863 84.3371 0 83.5252 0ZM82.0505 97.0481H2.95027V2.9526H82.0505V97.0481ZM6.53388 94.9376H78.4669C79.2835 94.9376 79.9416 94.2742 79.9416 93.4617V6.53904C79.9416 5.72174 79.2787 5.06311 78.4669 5.06311H6.53388C5.71723 5.06311 5.05912 5.72657 5.05912 6.53904V93.4568C5.05912 94.2741 5.72205 94.9327 6.53388 94.9327V94.9376ZM8.00865 8.0199H76.9877V91.9863L8.00865 91.9814V8.0199ZM70.8768 12.6593H14.1244C13.3077 12.6593 12.6496 13.3227 12.6496 14.1352V85.8653C12.6496 86.6826 13.3126 87.3412 14.1244 87.3412H70.8768C71.6935 87.3412 72.3516 86.6778 72.3516 85.8653V14.1352C72.3516 13.3179 71.6887 12.6593 70.8768 12.6593ZM22.8953 84.3894V82.0673C22.8953 79.4183 23.515 76.8317 24.6919 74.5049C30.4421 76.7741 36.8169 77.3125 41.5486 77.3125C41.8657 77.3125 42.1779 77.3125 42.4806 77.3077C47.371 77.2452 52.0163 75.0625 55.2249 71.3221C56.2722 70.0962 57.2281 68.9087 58.0832 67.7837C60.6244 69.8702 62.104 72.9663 62.104 76.3029V84.3894L22.8953 84.3894ZM58.7326 64.6061C58.675 64.5676 58.6173 64.5244 58.5597 64.4907C58.5597 64.4907 58.5549 64.4907 58.5549 64.4859C56.7006 63.3032 54.5964 62.582 52.4059 62.3754V40.5047C52.4059 36.899 49.4756 33.9663 45.8727 33.9663H33.2919C32.3455 33.9663 31.4424 34.173 30.6305 34.5384C31.3463 32.6105 32.4608 30.8365 33.9548 29.3365C36.693 26.596 40.3391 25.0865 44.2207 25.0865C52.2239 25.0865 58.7335 31.6009 58.7335 39.6107L58.7326 64.6061ZM29.712 47.0296V40.5055C29.712 38.5295 31.3213 36.919 33.2957 36.919H45.8765C47.8509 36.919 49.4603 38.5295 49.4603 40.5055V47.0296C49.4603 52.4767 45.031 56.9093 39.5883 56.9093C34.1455 56.9093 29.7164 52.4765 29.7164 47.0296H29.712ZM29.712 55.2074C31.1339 56.9237 33.0027 58.2507 35.1259 59.0439V62.8516C33.2092 63.3084 31.3885 64.0439 29.712 65.0247V55.2074ZM36.8506 65.515C37.5616 65.3948 38.0756 64.7794 38.0756 64.0583V59.765C38.5704 59.8227 39.0748 59.8612 39.584 59.8612C43.5521 59.8612 47.1021 58.0486 49.4559 55.2074V63.7891C49.4559 64.6064 50.1189 65.2651 50.9307 65.2651H51.0748C52.636 65.2651 54.1637 65.592 55.5616 66.217C54.7882 67.2314 53.9235 68.2987 52.9819 69.3996C50.3253 72.4957 46.4822 74.2987 42.4374 74.3515C38.0323 74.4188 31.84 74.0294 26.2816 71.9525C28.8468 68.5487 32.6131 66.2362 36.8502 65.5102L36.8506 65.515ZM69.4069 84.39H65.0593V76.3035C65.0593 72.8949 63.8391 69.693 61.687 67.193V39.6116C61.687 29.9771 53.8518 22.136 44.2252 22.136C39.5558 22.136 35.1698 23.9534 31.8744 27.2513C28.5789 30.559 26.7631 34.9484 26.7631 39.6119V67.1551C25.2163 68.4964 23.8663 70.0734 22.7855 71.8666V71.8714C20.9312 74.9291 19.9512 78.4532 19.9512 82.0636V84.3857H15.6036L15.5988 15.6119H69.4022V84.3857L69.4069 84.39ZM17.7126 30.1687V24.7889C17.7126 23.9716 18.3755 23.313 19.1873 23.313C20.004 23.313 20.6621 23.9764 20.6621 24.7889V30.1687C20.6621 30.986 19.9992 31.6446 19.1873 31.6446C18.3707 31.6446 17.7126 30.9812 17.7126 30.1687Z" fill="#7454E8"/>
</svg>
